<svg width="1752" height="872" viewBox="0 0 1752 872" fill="none" xmlns="http://www.w3.org/2000/svg">
<path d="M489.383 702.618H100.988V148.315H212.015V591.678H489.383V702.618ZM828.258 654.301C819.749 662.031 810.594 669.376 800.79 676.336C791.249 683.034 781.19 688.961 770.622 694.117C760.047 699.011 749.086 702.873 737.74 705.709C726.648 708.8 715.302 710.349 703.693 710.349C678.162 710.349 654.18 705.84 631.742 696.822C609.304 687.797 589.573 675.042 572.557 658.555C555.788 641.799 542.506 621.575 532.709 597.867C523.168 573.897 518.393 547.098 518.393 517.463V288.629H623.62V517.463C623.62 531.382 625.679 543.876 629.806 554.959C634.188 565.781 639.995 574.929 647.215 582.405C654.435 589.874 662.819 595.547 672.361 599.409C682.158 603.277 692.602 605.212 703.693 605.212C714.523 605.212 724.712 602.761 734.254 597.867C744.057 592.711 752.566 586.013 759.786 577.766C767.005 569.519 772.682 560.239 776.809 549.934C780.936 539.367 782.995 528.546 782.995 517.463V288.629H888.607V702.618H863.076L828.258 654.301ZM1196.92 702.618H955.53V597.481H1196.92C1204.15 597.481 1210.34 594.9 1215.5 589.75C1220.65 584.594 1223.23 578.406 1223.23 571.192C1223.23 563.723 1220.65 558.821 1215.5 556.501C1210.34 554.188 1204.15 553.025 1196.92 553.025H1087.06C1068.75 553.025 1051.6 549.549 1035.61 542.589C1019.62 535.629 1005.69 526.226 993.827 514.372C981.963 502.256 972.553 488.213 965.588 472.236C958.885 456.258 955.53 439.124 955.53 420.827C955.53 402.53 958.885 385.396 965.588 369.418C972.553 353.441 981.963 339.522 993.827 327.668C1005.69 315.814 1019.62 306.541 1035.61 299.836C1051.6 292.883 1068.75 289.4 1087.06 289.4H1300.98V394.544H1087.06C1079.84 394.544 1073.65 397.119 1068.49 402.275C1063.33 407.424 1060.76 413.613 1060.76 420.827C1060.76 428.303 1063.33 434.739 1068.49 440.157C1073.65 445.306 1079.84 447.888 1087.06 447.888H1196.92C1214.98 447.888 1232 450.978 1247.99 457.16C1263.97 463.087 1277.9 471.465 1289.77 482.286C1301.63 493.108 1311.04 506.125 1318.01 521.332C1324.97 536.531 1328.45 553.156 1328.45 571.192C1328.45 589.489 1324.97 606.63 1318.01 622.6C1311.04 638.323 1301.63 652.235 1289.77 664.351C1277.9 676.205 1263.97 685.608 1247.99 692.568C1232 699.266 1214.98 702.618 1196.92 702.618ZM1592.67 702.618C1567.14 702.618 1543.15 697.848 1520.72 688.314C1498.28 678.525 1478.55 665.253 1461.53 648.504C1444.76 631.494 1431.48 611.779 1421.68 589.358C1412.14 566.944 1407.37 542.975 1407.37 517.463V394.544H1355.92V289.4H1407.37V123.96H1512.59V289.4H1672.75V394.544H1512.59V517.463C1512.59 528.546 1514.65 538.982 1518.78 548.771C1522.91 558.305 1528.58 566.683 1535.8 573.897C1543.02 581.111 1551.53 586.914 1561.34 591.292C1571.13 595.416 1581.58 597.481 1592.67 597.481H1672.75V702.618H1592.67Z" fill="#E5E5E5"/>
<path d="M213.048 871.748C205.043 871.748 197.878 869.917 191.554 866.241C185.236 862.572 180.276 857.54 176.673 851.152C173.146 844.694 171.382 837.46 171.382 829.454C171.382 821.675 173.187 814.66 176.783 808.417C180.386 802.18 185.381 797.292 191.774 793.768C198.167 790.243 205.374 788.481 213.379 788.481C217.719 788.481 221.612 788.887 225.063 789.692C228.59 790.429 231.456 791.31 233.661 792.336C235.865 793.293 237.374 794.139 238.18 794.869L233.33 805.222C228.776 801.553 222.052 799.715 213.158 799.715C207.282 799.715 202.177 801.003 197.837 803.57C193.503 806.145 190.197 809.628 187.916 814.034C185.643 818.439 184.499 823.361 184.499 828.793C184.499 834.961 185.712 840.468 188.137 845.314C190.638 850.16 194.055 853.946 198.388 856.659C202.797 859.302 207.757 860.624 213.269 860.624C216.727 860.624 220.034 860.225 223.189 859.412C226.351 858.531 229.031 857.175 231.236 855.337V839.697H214.591V828.352H243.471V860.073C240.826 863.377 236.823 866.172 231.456 868.444C226.165 870.647 220.034 871.748 213.048 871.748ZM558.633 789.582L597.654 870.647H583.435L576.49 854.786H539.343L532.399 870.647H518.621L557.421 789.582H558.633ZM553.122 824.057L544.304 843.662H571.64L562.932 824.167L558.192 813.042H557.972L553.122 824.057ZM896.985 832.868L891.914 821.413L889.599 832.868L882.104 870.647H869.869L886.623 789.692H887.946L910.212 833.419L916.826 848.068L923.439 833.419L945.264 789.692H946.477L963.893 870.647H951.768L943.611 832.868L941.186 821.413L936.777 832.868L917.156 870.647H916.495L896.985 832.868ZM1246.35 789.692H1281.85V800.486H1258.59V822.845H1277.33V833.859H1258.59V859.743H1285.48V870.647H1246.35V789.692ZM1588.26 871.748C1583.85 871.748 1579.47 870.977 1575.14 869.435C1570.81 867.893 1567.68 866.172 1565.77 864.259L1571.61 853.795C1573.16 855.192 1575.55 856.659 1578.78 858.201C1582.09 859.674 1585.25 860.404 1588.26 860.404C1592.15 860.404 1595.31 859.488 1597.74 857.65C1600.24 855.819 1601.49 853.286 1601.49 850.05C1601.49 847.558 1600.82 845.39 1599.5 843.552C1598.18 841.721 1596.56 840.213 1594.65 839.036C1592.74 837.79 1590.02 836.282 1586.49 834.52C1582.31 832.469 1579.44 830.927 1577.9 829.894C1570.77 825.124 1567.2 818.515 1567.2 810.069C1567.2 803.095 1569.52 797.774 1574.15 794.098C1578.78 790.353 1584.62 788.481 1591.68 788.481C1599.25 788.481 1605.67 790.649 1610.97 794.979L1605.12 805.002C1603.72 803.536 1601.74 802.29 1599.17 801.257C1596.67 800.156 1593.99 799.605 1591.12 799.605C1587.45 799.605 1584.54 800.452 1582.42 802.138C1580.36 803.756 1579.33 806.179 1579.33 809.408C1579.33 811.686 1579.99 813.745 1581.31 815.576C1582.64 817.338 1584.29 818.88 1586.27 820.202C1588.33 821.523 1591.09 823.141 1594.54 825.048C1597.85 826.886 1600.38 828.352 1602.15 829.454C1603.91 830.486 1605.56 831.732 1607.11 833.198C1609.24 835.112 1610.96 837.384 1612.29 840.027C1613.61 842.671 1614.27 845.576 1614.27 848.729C1614.27 853.65 1613.14 857.836 1610.85 861.285C1608.65 864.74 1605.56 867.342 1601.6 869.105C1597.7 870.867 1593.25 871.748 1588.26 871.748Z" fill="#E5E5E5"/>
</svg>
